<?xml version="1.0" encoding="UTF-8"?>
<svg id="Layer_2" data-name="Layer 2" xmlns="http://www.w3.org/2000/svg" viewBox="0 0 159.95 166.39">
  <defs>
    <style>
      .cls-1 {
        fill: #fff;
        stroke: #000;
        stroke-linecap: round;
        stroke-linejoin: round;
        stroke-width: 6px;
      }
    </style>
  </defs>
  <g id="Layer_2-2" data-name="Layer 2">
    <g>
      <path class="cls-1" d="m15.69,51.45s-6.84-23.95,20.19-32.5c0,0,16.42-21.21,37.64-14.71v18.13s-16.76,1.71-16.76,19.16,16.76,16.42,16.76,16.42v18.82h-21.9s-11.29-.34-11.29,14.03c0,0-3.42-14.37-10.61-14.37H3.37s2.05-19.16,12.32-24.98c10.26-5.82,12.66,7.18,12.66,7.18"/>
      <path class="cls-1" d="m147.49,112.43s10.87,24.56-21.64,36.19c0,0-21.21,29.77-39.22,4.79v-13.34s22.12,5.47,21.43-15.74c-.69-21.54-21.43-16.09-21.43-16.09v-18.82h20.06s11.29.34,11.29-14.03c0,0,3.42,14.37,10.61,14.37h28.18s.98,16.85-9.28,22.66c-10.26,5.82-15.7-4.87-15.7-4.87"/>
      <path class="cls-1" d="m120.45,18.31s29.1,2.6,24.73,31.6c0,0,13.34,12.32,11.61,26.71h-21.36s0-20.04-17.45-20.04-16.17,20.04-16.17,20.04h-15.31v-21.9s.34-14.73-14.03-14.73c0,0,14.37-3.42,14.37-10.61V3s26.35,1.49,32.16,11.76c5.82,10.26-4.88,16.17-4.88,16.17"/>
      <path class="cls-1" d="m31.42,145.88c24.98,32.33,42.36,8.56,42.08,7.87,0,0,0-12.23,0-19.42s14.37-10.61,14.37-10.61c-14.37,0-14.03-13.92-14.03-13.92v-20.06h-16.94s1.03,18.67-15.91,18.67c-19.76,0-17.79-18.67-17.79-18.67H3.37c-2.33,16.38,7.18,20.9,7.18,20.9.68,36.95,20.87,35.24,20.87,35.24,0,0,8.9,1.03,8.55-10.26"/>
    </g>
  </g>
</svg>